<svg width="18" height="16" viewBox="0 0 18 16" fill="none" xmlns="http://www.w3.org/2000/svg">
<path id="ontactus_gengduo" d="M17.7279 8.71408C17.9195 8.51363 18.0217 8.25054 17.9961 7.98745C18.0089 7.71183 17.9195 7.44874 17.7279 7.26082L11.0608 0.633444C10.6904 0.2576 10.0901 0.2576 9.70693 0.620916C9.70693 0.620916 9.70693 0.620916 9.69415 0.633444C9.31099 1.00929 9.31099 1.61064 9.69415 1.98648L14.752 7.03531L0.970691 7.03531C0.434257 7.03531 -3.10844e-07 7.46127 -3.34392e-07 7.99997C-3.5794e-07 8.53868 0.434257 8.96464 0.970691 8.96464L14.752 8.96464L9.69415 14.0135C9.31098 14.3893 9.31098 14.9907 9.69415 15.3665C10.0645 15.7424 10.6648 15.7424 11.048 15.379C11.048 15.379 11.048 15.379 11.0608 15.3665L17.7279 8.71408Z" fill="white"/>
</svg>
